# xmcd CD database file
#
# Track frame offsets:
#	150
#	8424
#	32497
#	54690
#	77725
#	98925
#	114807
#	134645
#	156519
#	175266
#	200448
#	224160
#	239568
#	257327
#	279594
#	301446
#
# Disc length: 4306 seconds
#
# Revision: 0
# Processed by: cddbd v1.5.1PL2 Copyright (c) Steve Scherf et al.
# Submitted via: CDex 1.70beta1
#
DISCID=e010d010
DTITLE=Grandes Interpretes De La Salsa - Salsa Collection
DYEAR=1900
DGENRE=Salsa
TTITLE0=Intro
TTITLE1=Lagrimas
TTITLE2=Adonde Va El Amor
TTITLE3=Cali Pachanguero
TTITLE4=Sin Salsa
TTITLE5=Naturaleza
TTITLE6=Que Forma De Querer
TTITLE7=Los Fariseos
TTITLE8=Se Morira El Amor
TTITLE9=Cara Dura
TTITLE10=Caretas
TTITLE11=Vuelve
TTITLE12=A Pesar
TTITLE13=Cancion
TTITLE14=Lobo Domesticado
TTITLE15=Lobo Domesticado
EXTD=
EXTT0=
EXTT1=
EXTT2=
EXTT3=
EXTT4=
EXTT5=
EXTT6=
EXTT7=
EXTT8=
EXTT9=
EXTT10=
EXTT11=
EXTT12=
EXTT13=
EXTT14=
EXTT15=
PLAYORDER=
